#!OML:ASF E:\acrobat2\Project_11_07_03\Capture day 1\Session 1\Acrobat.ASF
:FULLY-SPECIFIED
:DEGREES
115
root 10.301 16.4211 -33.1339 170.238 2.32751 -182.556
lowerback 4.8715 -1.09859 -5.3009
upperback 1.98192 -1.58749 -1.04252
thorax -0.568184 -0.759004 1.97926
lowerneck 4.64749 1.27613 -4.35321
upperneck -1.5483 1.80623 8.15724
head -1.44455 0.840276 3.37159
rclavicle -2.01269e-015 1.25234e-014
rhumerus -40.3455 7.98174 -87.0189
rradius 49.6578
rwrist -8.25758
rhand -7.82998 -36.9438
rfingers 7.12502
rthumb 18.0724 293.876
lclavicle -2.01269e-015 1.25234e-014
lhumerus -22.5035 -45.1908 94.2818
lradius 96.0897
lwrist 12.2592
lhand -4.70025 -384.957
lfingers 7.12502
lthumb 21.0814 3.91723
rfemur -18.8221 -2.0009 16.2758
rtibia 47.5845
rfoot -199.792 -178.661
rtoes -20.6586
lfemur -22.1037 2.89222 -24.9612
ltibia 47.8265
lfoot -1.0873 -21.8575
ltoes 55.5539
116
root 10.3246 16.2471 -33.335 170.147 2.20997 -183.147
lowerback 4.80422 -0.946429 -5.57333
upperback 1.95341 -1.38299 -1.34486
thorax -0.574647 -0.65029 1.80919
lowerneck 3.68203 1.07282 -4.6079
upperneck -1.31257 1.5244 8.17886
head -1.17896 0.719906 3.43344
rclavicle 1.32937e-014 2.44505e-014
rhumerus -38.4713 6.93112 -86.73
rradius 47.2362
rwrist -5.97019
rhand -8.47465 -38.0324
rfingers 7.12502
rthumb 17.4521 292.731
lclavicle 1.32937e-014 2.44505e-014
lhumerus -23.5523 -44.7511 95.0608
lradius 95.7193
lwrist 9.27375
lhand -5.09229 -386.984
lfingers 7.12502
lthumb 20.7047 1.93149
rfemur -20.2208 -1.78421 16.1424
rtibia 50.9941
rfoot -201.233 -183.047
rtoes -35.208
lfemur -22.6061 3.40759 -25.6452
ltibia 50.2689
lfoot -2.90183 -23.8748
ltoes 53.3881
117
root 10.3268 16.1415 -33.5262 169.451 2.25154 -183.466
lowerback 5.22949 -0.805091 -5.35689
upperback 2.15458 -1.18469 -1.51743
thorax -0.626684 -0.54162 1.50626
lowerneck 3.75647 1.0461 -5.13215
upperneck -2.45698 1.53172 8.45238
head -1.57645 0.707964 3.64004
rclavicle 3.37934e-015 -2.74323e-014
rhumerus -36.6191 5.52376 -86.1298
rradius 44.5178
rwrist -4.27777
rhand -9.40478 -41.0135
rfingers 7.12502
rthumb 16.5568 289.673
lclavicle 3.37934e-015 -2.74323e-014
lhumerus -25.129 -43.463 96.0247
lradius 94.3315
lwrist 6.79273
lhand -3.50722 -382.851
lfingers 7.12502
lthumb 22.2271 5.89079
rfemur -19.6369 -1.54853 15.9535
rtibia 51.9391
rfoot -201.869 -184.121
rtoes -35.8283
lfemur -21.5745 3.71727 -26.0032
ltibia 51.3368
lfoot -5.44968 -24.9715
ltoes 50.3489
118
root 10.3498 16.1339 -33.6802 169.797 1.89936 -183.395
lowerback 5.00731 -0.86996 -5.18686
upperback 1.95483 -1.27594 -1.40963
thorax -0.705582 -0.590892 1.52549
lowerneck 3.28281 1.24172 -5.62722
upperneck -2.32077 1.77142 8.49756
head -1.47313 0.838933 3.74499
rclavicle 9.15652e-015 -7.35503e-015
rhumerus -35.5334 3.87061 -85.3918
rradius 42.0022
rwrist -2.5623
rhand -10.3114 -42.1114
rfingers 7.12502
rthumb 15.6837 288.504
lclavicle 9.15652e-015 -7.35503e-015
lhumerus -27.274 -41.2847 97.3306
lradius 92.0884
lwrist 4.9226
lhand -1.05398 -381.173
lfingers 7.12502
lthumb 24.5805 7.26859
rfemur -19.3478 -1.5617 16.0982
rtibia 52.2892
rfoot -202.919 -184.519
rtoes -34.6995
lfemur -21.6252 3.41638 -25.9616
ltibia 52.2046
lfoot -4.06172 -25.4814
ltoes 53.6225
119
root 10.3641 16.2003 -33.8474 170.432 1.0325 -182.691
lowerback 4.38558 -1.1201 -4.30682
upperback 1.64943 -1.5819 -1.16627
thorax -0.674444 -0.755632 1.29076
lowerneck 3.13456 1.37985 -5.89526
upperneck -2.2752 1.92929 8.31543
head -1.44507 0.921105 3.72909
rclavicle -4.16205e-015 -1.5704e-014
rhumerus -35.0963 2.04109 -84.597
rradius 39.6478
rwrist -1.49186
rhand -11.1362 -43.1206
rfingers 7.12502
rthumb 14.8893 287.434
lclavicle -4.16205e-015 -1.5704e-014
lhumerus -29.5734 -38.706 98.7048
lradius 88.8081
lwrist 3.67821
lhand 0.772129 -379.502
lfingers 7.12502
lthumb 26.3297 8.69022
rfemur -18.5478 -2.07186 16.6998
rtibia 51.3678
rfoot -203.193 -185.258
rtoes -36.1137
lfemur -21.174 2.66292 -25.3688
ltibia 51.3798
lfoot -4.0243 -25.6113
ltoes 53.2194
120
root 10.3739 16.3267 -34.0125 171.317 0.0921242 -182.602
lowerback 3.52093 -1.27112 -4.03859
upperback 1.23513 -1.77026 -1.05452
thorax -0.613249 -0.858845 1.24877
lowerneck 2.63554 1.29669 -6.35541
upperneck -1.89688 1.7941 8.3659
head -1.22898 0.866019 3.83894
rclavicle -1.09332e-015 1.69961e-014
rhumerus -35.0535 0.40837 -83.7242
rradius 37.5877
rwrist -2.62074
rhand -12.419 -44.1032
rfingers 7.12502
rthumb 13.6532 286.365
lclavicle -1.09332e-015 1.69961e-014
lhumerus -31.858 -36.087 100.172
lradius 84.6289
lwrist 2.68613
lhand 0.961256 -376.889
lfingers 7.12502
lthumb 26.5108 11.2762
rfemur -17.7781 -2.71456 16.4783
rtibia 49.6899
rfoot -202.969 -185.601
rtoes -36.6144
lfemur -20.5682 1.79463 -25.5126
ltibia 49.7734
lfoot -3.76891 -25.4446
ltoes 52.9204
121
root 10.3976 16.5118 -34.171 171.733 -0.623163 -182.104
lowerback 3.14967 -1.18672 -3.51126
upperback 0.987144 -1.74547 -0.795954
thorax -0.672998 -0.89306 1.21377
lowerneck 2.05341 0.967653 -6.89173
upperneck -1.72706 1.35732 8.57299
head -1.04207 0.661108 4.02736
rclavicle 3.41661e-016 -1.98785e-015
rhumerus -35.2913 -1.34874 -82.6627
rradius 35.8663
rwrist -3.95682
rhand -12.4509 -45.49
rfingers 7.12502
rthumb 13.6224 284.976
lclavicle 3.41661e-016 -1.98785e-015
lhumerus -33.9074 -33.7136 101.552
lradius 79.8848
lwrist 1.60801
lhand -0.380887 -372.182
lfingers 7.12502
lthumb 25.2255 16.1709
rfemur -16.1185 -3.03286 16.8969
rtibia 47.1641
rfoot -202.527 -185.56
rtoes -34.4836
lfemur -19.0151 1.23021 -24.8936
ltibia 47.2925
lfoot -3.34718 -25.0036
ltoes 52.5309
122
root 10.4197 16.7205 -34.318 172.316 -1.19245 -182.106
lowerback 2.57061 -1.08235 -3.47639
upperback 0.759494 -1.57274 -0.724583
thorax -0.589205 -0.800442 1.25141
lowerneck 1.65369 0.597243 -7.24977
upperneck -1.86324 0.886124 8.76524
head -0.978189 0.435153 4.17611
rclavicle -4.78947e-015 -1.69961e-014
rhumerus -35.746 -2.99332 -81.6419
rradius 34.2692
rwrist -5.0641
rhand -11.9233 -45.9839
rfingers 7.12502
rthumb 14.1309 284.517
lclavicle -4.78947e-015 -1.69961e-014
lhumerus -35.3228 -31.0302 102.19
lradius 73.8632
lwrist 1.03523
lhand -1.99968 -370.43
lfingers 7.12502
lthumb 23.6737 18.1326
rfemur -14.6486 -3.43972 16.7637
rtibia 44.4169
rfoot -201.627 -185.733
rtoes -33.6522
lfemur -17.4289 0.797057 -24.7983
ltibia 44.2837
lfoot -2.71807 -24.2908
ltoes 52.3223
123
root 10.4304 16.9531 -34.456 172.985 -1.56263 -182.605
lowerback 1.91377 -0.964275 -3.82814
upperback 0.494707 -1.39765 -0.834205
thorax -0.495438 -0.709935 1.32062
lowerneck 1.27995 0.33142 -7.38195
upperneck -1.93507 0.554681 8.81698
head -0.905173 0.278658 4.22529
rclavicle 5.81445e-015 2.13694e-015
rhumerus -36.3386 -4.39129 -80.6883
rradius 32.6687
rwrist -5.80369
rhand -10.7823 -45.8177
rfingers 7.12502
rthumb 15.2302 284.763
lclavicle 5.81445e-015 2.13694e-015
lhumerus -36.2862 -27.7147 102.002
lradius 67.5084
lwrist 2.30732
lhand -3.33687 -369.749
lfingers 7.12502
lthumb 22.3906 18.973
rfemur -13.1565 -3.98225 15.9456
rtibia 41.4761
rfoot -200.283 -185.445
rtoes -32.9401
lfemur -15.6204 0.456191 -25.32
ltibia 40.6234
lfoot -1.99839 -23.1369
ltoes 52.2183
124
root 10.4435 17.2036 -34.6005 173.106 -1.20365 -182.901
lowerback 1.62435 -0.635339 -3.90277
upperback 0.382389 -0.950931 -0.908947
thorax -0.471318 -0.48613 1.27341
lowerneck 0.920297 0.0959857 -7.43179
upperneck -1.96048 0.263517 8.8454
head -0.822061 0.142178 4.2476
rclavicle -1.46604e-015 -4.27387e-015
rhumerus -37.1196 -5.85152 -79.7048
rradius 30.9839
rwrist -5.76831
rhand -9.6325 -44.7799
rfingers 7.12502
rthumb 16.3375 285.888
lclavicle -1.46604e-015 -4.27387e-015
lhumerus -36.928 -24.1628 101.103
lradius 62.2024
lwrist 3.11716
lhand -2.96639 -365.315
lfingers 7.12502
lthumb 22.7462 23.3639
rfemur -10.9677 -3.79392 15.5169
rtibia 38.0843
rfoot -198.372 -184.749
rtoes -30.7554
lfemur -12.8378 0.758638 -25.3349
ltibia 36.2478
lfoot -1.07407 -21.7003
ltoes 52.4056
